<svg width="308" height="269" viewBox="0 0 308 269" fill="none" xmlns="http://www.w3.org/2000/svg">
<path d="M2.66078 63.9499C-9.85547 98.7419 42.4176 197.936 91.7443 230.507C141.071 263.078 156.532 269 156.532 269C186.472 240.13 239.725 198.676 269.175 154.261C298.625 109.845 324.392 84.6771 292.734 24.7165C268.143 -21.86 200.705 9.91163 188.926 19.5347C177.147 29.1578 174.938 27.6775 148.434 63.9499C136.654 24.7165 113.831 15.0934 80.7007 9.91158C47.5705 4.72982 29.9011 19.5347 29.9011 19.5347C29.9011 19.5347 15.177 29.1578 2.66078 63.9499Z" fill="url(#paint0_linear_2010_93)"/>
<defs>
<linearGradient id="paint0_linear_2010_93" x1="151.758" y1="-4.34419" x2="151.758" y2="255.675" gradientUnits="userSpaceOnUse">
<stop stop-color="#FF0000" stop-opacity="0.5"/>
<stop offset="1" stop-color="#990000" stop-opacity="0.5"/>
</linearGradient>
</defs>
</svg>
